<mxfile host="app.diagrams.net" modified="2020-11-30T15:01:34.145Z" agent="5.0 (Windows NT 10.0; Win64; x64) AppleWebKit/537.36 (KHTML, like Gecko) Chrome/86.0.4240.198 Safari/537.36" etag="xV3H93oH0B-fC1TPMbI4" version="13.10.4" type="github">
  <diagram id="C5RBs43oDa-KdzZeNtuy" name="Page-1">
    <mxGraphModel dx="806" dy="428" grid="1" gridSize="10" guides="1" tooltips="1" connect="1" arrows="1" fold="1" page="1" pageScale="1" pageWidth="827" pageHeight="1169" math="0" shadow="0">
      <root>
        <mxCell id="WIyWlLk6GJQsqaUBKTNV-0" />
        <mxCell id="WIyWlLk6GJQsqaUBKTNV-1" parent="WIyWlLk6GJQsqaUBKTNV-0" />
        <mxCell id="0Al4i7XwTMoi_BySgxpM-38" value="" style="group" vertex="1" connectable="0" parent="WIyWlLk6GJQsqaUBKTNV-1">
          <mxGeometry x="180" y="23" width="1030" height="717" as="geometry" />
        </mxCell>
        <mxCell id="wd8GQg8yWR7TYl4xGY3D-36" style="edgeStyle=orthogonalEdgeStyle;rounded=0;orthogonalLoop=1;jettySize=auto;html=1;entryX=0;entryY=0.5;entryDx=0;entryDy=0;" parent="0Al4i7XwTMoi_BySgxpM-38" source="wd8GQg8yWR7TYl4xGY3D-1" edge="1">
          <mxGeometry x="-70" y="-23" as="geometry">
            <mxPoint x="140" y="150" as="targetPoint" />
          </mxGeometry>
        </mxCell>
        <mxCell id="wd8GQg8yWR7TYl4xGY3D-1" value="Admin" style="html=1;dashed=0;whitespace=wrap;" parent="0Al4i7XwTMoi_BySgxpM-38" vertex="1">
          <mxGeometry y="125" width="100" height="50" as="geometry" />
        </mxCell>
        <mxCell id="wd8GQg8yWR7TYl4xGY3D-2" value="Teacher" style="html=1;dashed=0;whitespace=wrap;" parent="0Al4i7XwTMoi_BySgxpM-38" vertex="1">
          <mxGeometry x="807" y="25" width="100" height="50" as="geometry" />
        </mxCell>
        <mxCell id="wd8GQg8yWR7TYl4xGY3D-3" value="Student" style="html=1;dashed=0;whitespace=wrap;" parent="0Al4i7XwTMoi_BySgxpM-38" vertex="1">
          <mxGeometry x="300" y="418" width="100" height="50" as="geometry" />
        </mxCell>
        <mxCell id="wd8GQg8yWR7TYl4xGY3D-4" value="2.0" style="swimlane;fontStyle=0;childLayout=stackLayout;horizontal=1;startSize=20;fillColor=#ffffff;horizontalStack=0;resizeParent=1;resizeParentMax=0;resizeLast=0;collapsible=0;marginBottom=0;swimlaneFillColor=#ffffff;labelBackgroundColor=none;labelBorderColor=none;" parent="0Al4i7XwTMoi_BySgxpM-38" vertex="1">
          <mxGeometry x="290" y="5" width="100" height="70" as="geometry" />
        </mxCell>
        <mxCell id="wd8GQg8yWR7TYl4xGY3D-5" value="Create / Edit&lt;br&gt;Announcement" style="text;html=1;strokeColor=none;fillColor=none;align=center;verticalAlign=middle;whiteSpace=wrap;rounded=0;labelBackgroundColor=none;" parent="wd8GQg8yWR7TYl4xGY3D-4" vertex="1">
          <mxGeometry y="20" width="100" height="50" as="geometry" />
        </mxCell>
        <mxCell id="wd8GQg8yWR7TYl4xGY3D-6" value="3.0" style="swimlane;fontStyle=0;childLayout=stackLayout;horizontal=1;startSize=20;fillColor=#ffffff;horizontalStack=0;resizeParent=1;resizeParentMax=0;resizeLast=0;collapsible=0;marginBottom=0;swimlaneFillColor=#ffffff;labelBackgroundColor=none;labelBorderColor=none;" parent="0Al4i7XwTMoi_BySgxpM-38" vertex="1">
          <mxGeometry x="290" y="116" width="100" height="70" as="geometry" />
        </mxCell>
        <mxCell id="wd8GQg8yWR7TYl4xGY3D-7" value="Create / Edit&lt;br&gt;&amp;nbsp;Teacher" style="text;html=1;strokeColor=none;fillColor=none;align=center;verticalAlign=middle;whiteSpace=wrap;rounded=0;labelBackgroundColor=none;" parent="wd8GQg8yWR7TYl4xGY3D-6" vertex="1">
          <mxGeometry y="20" width="100" height="50" as="geometry" />
        </mxCell>
        <mxCell id="wd8GQg8yWR7TYl4xGY3D-9" value="4.0" style="swimlane;fontStyle=0;childLayout=stackLayout;horizontal=1;startSize=20;fillColor=#ffffff;horizontalStack=0;resizeParent=1;resizeParentMax=0;resizeLast=0;collapsible=0;marginBottom=0;swimlaneFillColor=#ffffff;labelBackgroundColor=none;labelBorderColor=none;" parent="0Al4i7XwTMoi_BySgxpM-38" vertex="1">
          <mxGeometry x="290" y="202" width="100" height="70" as="geometry" />
        </mxCell>
        <mxCell id="wd8GQg8yWR7TYl4xGY3D-10" value="Create / Edit&lt;br&gt;Subject" style="text;html=1;strokeColor=none;fillColor=none;align=center;verticalAlign=middle;whiteSpace=wrap;rounded=0;labelBackgroundColor=none;" parent="wd8GQg8yWR7TYl4xGY3D-9" vertex="1">
          <mxGeometry y="20" width="100" height="50" as="geometry" />
        </mxCell>
        <mxCell id="wd8GQg8yWR7TYl4xGY3D-14" value="" style="group" parent="0Al4i7XwTMoi_BySgxpM-38" vertex="1" connectable="0">
          <mxGeometry x="450" y="128" width="140" height="40" as="geometry" />
        </mxCell>
        <mxCell id="wd8GQg8yWR7TYl4xGY3D-11" value="D2" style="html=1;dashed=0;whitespace=wrap;shape=mxgraph.dfd.dataStoreID;align=left;spacingLeft=3;points=[[0,0],[0.5,0],[1,0],[0,0.5],[1,0.5],[0,1],[0.5,1],[1,1]];labelBackgroundColor=none;" parent="wd8GQg8yWR7TYl4xGY3D-14" vertex="1">
          <mxGeometry width="140" height="40" as="geometry" />
        </mxCell>
        <mxCell id="wd8GQg8yWR7TYl4xGY3D-13" value="Teacher" style="text;html=1;strokeColor=none;fillColor=none;align=center;verticalAlign=middle;whiteSpace=wrap;rounded=0;labelBackgroundColor=none;" parent="wd8GQg8yWR7TYl4xGY3D-14" vertex="1">
          <mxGeometry x="23.333333333333332" width="116.66666666666667" height="40" as="geometry" />
        </mxCell>
        <mxCell id="wd8GQg8yWR7TYl4xGY3D-15" value="" style="group" parent="0Al4i7XwTMoi_BySgxpM-38" vertex="1" connectable="0">
          <mxGeometry x="450" y="224" width="140" height="40" as="geometry" />
        </mxCell>
        <mxCell id="wd8GQg8yWR7TYl4xGY3D-16" value="D3" style="html=1;dashed=0;whitespace=wrap;shape=mxgraph.dfd.dataStoreID;align=left;spacingLeft=3;points=[[0,0],[0.5,0],[1,0],[0,0.5],[1,0.5],[0,1],[0.5,1],[1,1]];labelBackgroundColor=none;" parent="wd8GQg8yWR7TYl4xGY3D-15" vertex="1">
          <mxGeometry width="140" height="40" as="geometry" />
        </mxCell>
        <mxCell id="wd8GQg8yWR7TYl4xGY3D-17" value="Subject" style="text;html=1;strokeColor=none;fillColor=none;align=center;verticalAlign=middle;whiteSpace=wrap;rounded=0;labelBackgroundColor=none;" parent="wd8GQg8yWR7TYl4xGY3D-15" vertex="1">
          <mxGeometry x="23.333333333333332" width="116.66666666666667" height="40" as="geometry" />
        </mxCell>
        <mxCell id="wd8GQg8yWR7TYl4xGY3D-25" value="" style="group" parent="0Al4i7XwTMoi_BySgxpM-38" vertex="1" connectable="0">
          <mxGeometry x="450" y="15" width="140" height="40" as="geometry" />
        </mxCell>
        <mxCell id="wd8GQg8yWR7TYl4xGY3D-26" value="D1" style="html=1;dashed=0;whitespace=wrap;shape=mxgraph.dfd.dataStoreID;align=left;spacingLeft=3;points=[[0,0],[0.5,0],[1,0],[0,0.5],[1,0.5],[0,1],[0.5,1],[1,1]];labelBackgroundColor=none;" parent="wd8GQg8yWR7TYl4xGY3D-25" vertex="1">
          <mxGeometry width="140" height="40" as="geometry" />
        </mxCell>
        <mxCell id="wd8GQg8yWR7TYl4xGY3D-27" value="Announcement" style="text;html=1;strokeColor=none;fillColor=none;align=center;verticalAlign=middle;whiteSpace=wrap;rounded=0;labelBackgroundColor=none;" parent="wd8GQg8yWR7TYl4xGY3D-25" vertex="1">
          <mxGeometry x="23.333333333333332" width="116.66666666666667" height="40" as="geometry" />
        </mxCell>
        <mxCell id="wd8GQg8yWR7TYl4xGY3D-28" value="5.0" style="swimlane;fontStyle=0;childLayout=stackLayout;horizontal=1;startSize=20;fillColor=#ffffff;horizontalStack=0;resizeParent=1;resizeParentMax=0;resizeLast=0;collapsible=0;marginBottom=0;swimlaneFillColor=#ffffff;labelBackgroundColor=none;labelBorderColor=none;" parent="0Al4i7XwTMoi_BySgxpM-38" vertex="1">
          <mxGeometry x="290" y="312" width="100" height="70" as="geometry" />
        </mxCell>
        <mxCell id="wd8GQg8yWR7TYl4xGY3D-29" value="Create / Edit&lt;br&gt;Student" style="text;html=1;strokeColor=none;fillColor=none;align=center;verticalAlign=middle;whiteSpace=wrap;rounded=0;labelBackgroundColor=none;" parent="wd8GQg8yWR7TYl4xGY3D-28" vertex="1">
          <mxGeometry y="20" width="100" height="50" as="geometry" />
        </mxCell>
        <mxCell id="wd8GQg8yWR7TYl4xGY3D-31" value="" style="group" parent="0Al4i7XwTMoi_BySgxpM-38" vertex="1" connectable="0">
          <mxGeometry x="450" y="325" width="140" height="40" as="geometry" />
        </mxCell>
        <mxCell id="wd8GQg8yWR7TYl4xGY3D-32" value="D4" style="html=1;dashed=0;whitespace=wrap;shape=mxgraph.dfd.dataStoreID;align=left;spacingLeft=3;points=[[0,0],[0.5,0],[1,0],[0,0.5],[1,0.5],[0,1],[0.5,1],[1,1]];labelBackgroundColor=none;" parent="wd8GQg8yWR7TYl4xGY3D-31" vertex="1">
          <mxGeometry width="140" height="40" as="geometry" />
        </mxCell>
        <mxCell id="wd8GQg8yWR7TYl4xGY3D-33" value="Student" style="text;html=1;strokeColor=none;fillColor=none;align=center;verticalAlign=middle;whiteSpace=wrap;rounded=0;labelBackgroundColor=none;" parent="wd8GQg8yWR7TYl4xGY3D-31" vertex="1">
          <mxGeometry x="23.333333333333332" width="116.66666666666667" height="40" as="geometry" />
        </mxCell>
        <mxCell id="wd8GQg8yWR7TYl4xGY3D-34" value="1.0" style="swimlane;fontStyle=0;childLayout=stackLayout;horizontal=1;startSize=20;fillColor=#ffffff;horizontalStack=0;resizeParent=1;resizeParentMax=0;resizeLast=0;collapsible=0;marginBottom=0;swimlaneFillColor=#ffffff;labelBackgroundColor=none;labelBorderColor=none;" parent="0Al4i7XwTMoi_BySgxpM-38" vertex="1">
          <mxGeometry x="140" y="112" width="100" height="70" as="geometry" />
        </mxCell>
        <mxCell id="wd8GQg8yWR7TYl4xGY3D-35" value="Login" style="text;html=1;strokeColor=none;fillColor=none;align=center;verticalAlign=middle;whiteSpace=wrap;rounded=0;labelBackgroundColor=none;" parent="wd8GQg8yWR7TYl4xGY3D-34" vertex="1">
          <mxGeometry y="20" width="100" height="50" as="geometry" />
        </mxCell>
        <mxCell id="wd8GQg8yWR7TYl4xGY3D-37" style="edgeStyle=orthogonalEdgeStyle;rounded=0;orthogonalLoop=1;jettySize=auto;html=1;entryX=0;entryY=0.25;entryDx=0;entryDy=0;" parent="0Al4i7XwTMoi_BySgxpM-38" source="wd8GQg8yWR7TYl4xGY3D-35" target="wd8GQg8yWR7TYl4xGY3D-5" edge="1">
          <mxGeometry x="-130" y="-23" as="geometry" />
        </mxCell>
        <mxCell id="wd8GQg8yWR7TYl4xGY3D-38" style="edgeStyle=orthogonalEdgeStyle;rounded=0;orthogonalLoop=1;jettySize=auto;html=1;entryX=0;entryY=0.5;entryDx=0;entryDy=0;" parent="0Al4i7XwTMoi_BySgxpM-38" source="wd8GQg8yWR7TYl4xGY3D-35" target="wd8GQg8yWR7TYl4xGY3D-7" edge="1">
          <mxGeometry x="-130" y="-23" as="geometry" />
        </mxCell>
        <mxCell id="wd8GQg8yWR7TYl4xGY3D-39" style="edgeStyle=orthogonalEdgeStyle;rounded=0;orthogonalLoop=1;jettySize=auto;html=1;entryX=0;entryY=0.5;entryDx=0;entryDy=0;" parent="0Al4i7XwTMoi_BySgxpM-38" source="wd8GQg8yWR7TYl4xGY3D-35" target="wd8GQg8yWR7TYl4xGY3D-10" edge="1">
          <mxGeometry x="-130" y="-23" as="geometry" />
        </mxCell>
        <mxCell id="wd8GQg8yWR7TYl4xGY3D-40" style="edgeStyle=orthogonalEdgeStyle;rounded=0;orthogonalLoop=1;jettySize=auto;html=1;entryX=0;entryY=0.5;entryDx=0;entryDy=0;" parent="0Al4i7XwTMoi_BySgxpM-38" source="wd8GQg8yWR7TYl4xGY3D-35" target="wd8GQg8yWR7TYl4xGY3D-29" edge="1">
          <mxGeometry x="-130" y="-23" as="geometry" />
        </mxCell>
        <mxCell id="wd8GQg8yWR7TYl4xGY3D-58" style="edgeStyle=orthogonalEdgeStyle;rounded=0;orthogonalLoop=1;jettySize=auto;html=1;entryX=1;entryY=0.25;entryDx=0;entryDy=0;startArrow=classic;startFill=1;endArrow=none;endFill=0;" parent="0Al4i7XwTMoi_BySgxpM-38" source="wd8GQg8yWR7TYl4xGY3D-56" target="wd8GQg8yWR7TYl4xGY3D-13" edge="1">
          <mxGeometry x="-180" y="1" as="geometry" />
        </mxCell>
        <mxCell id="wd8GQg8yWR7TYl4xGY3D-56" value="6.0" style="swimlane;fontStyle=0;childLayout=stackLayout;horizontal=1;startSize=20;fillColor=#ffffff;horizontalStack=0;resizeParent=1;resizeParentMax=0;resizeLast=0;collapsible=0;marginBottom=0;swimlaneFillColor=#ffffff;labelBackgroundColor=none;labelBorderColor=none;" parent="0Al4i7XwTMoi_BySgxpM-38" vertex="1">
          <mxGeometry x="797" y="103" width="120" height="70" as="geometry" />
        </mxCell>
        <mxCell id="wd8GQg8yWR7TYl4xGY3D-57" value="Login" style="text;html=1;strokeColor=none;fillColor=none;align=center;verticalAlign=middle;whiteSpace=wrap;rounded=0;labelBackgroundColor=none;" parent="wd8GQg8yWR7TYl4xGY3D-56" vertex="1">
          <mxGeometry y="20" width="120" height="50" as="geometry" />
        </mxCell>
        <mxCell id="wd8GQg8yWR7TYl4xGY3D-64" style="edgeStyle=orthogonalEdgeStyle;rounded=0;orthogonalLoop=1;jettySize=auto;html=1;entryX=0.5;entryY=0;entryDx=0;entryDy=0;startArrow=none;startFill=0;endArrow=classic;endFill=1;" parent="0Al4i7XwTMoi_BySgxpM-38" target="wd8GQg8yWR7TYl4xGY3D-56" edge="1">
          <mxGeometry x="-263" y="1" as="geometry">
            <mxPoint x="857" y="77" as="sourcePoint" />
          </mxGeometry>
        </mxCell>
        <mxCell id="wd8GQg8yWR7TYl4xGY3D-59" style="edgeStyle=orthogonalEdgeStyle;rounded=0;orthogonalLoop=1;jettySize=auto;html=1;entryX=0;entryY=0.5;entryDx=0;entryDy=0;startArrow=classic;startFill=1;endArrow=none;endFill=0;" parent="0Al4i7XwTMoi_BySgxpM-38" source="wd8GQg8yWR7TYl4xGY3D-13" target="wd8GQg8yWR7TYl4xGY3D-57" edge="1">
          <mxGeometry x="-180" y="1" as="geometry" />
        </mxCell>
        <mxCell id="wd8GQg8yWR7TYl4xGY3D-65" value="7.0" style="swimlane;fontStyle=0;childLayout=stackLayout;horizontal=1;startSize=20;fillColor=#ffffff;horizontalStack=0;resizeParent=1;resizeParentMax=0;resizeLast=0;collapsible=0;marginBottom=0;swimlaneFillColor=#ffffff;labelBackgroundColor=none;labelBorderColor=none;" parent="0Al4i7XwTMoi_BySgxpM-38" vertex="1">
          <mxGeometry x="650" width="100" height="70" as="geometry" />
        </mxCell>
        <mxCell id="wd8GQg8yWR7TYl4xGY3D-66" value="View / Edit&lt;br&gt;Announcement" style="text;html=1;strokeColor=none;fillColor=none;align=center;verticalAlign=middle;whiteSpace=wrap;rounded=0;labelBackgroundColor=none;" parent="wd8GQg8yWR7TYl4xGY3D-65" vertex="1">
          <mxGeometry y="20" width="100" height="50" as="geometry" />
        </mxCell>
        <mxCell id="wd8GQg8yWR7TYl4xGY3D-67" value="8.0" style="swimlane;fontStyle=0;childLayout=stackLayout;horizontal=1;startSize=20;fillColor=#ffffff;horizontalStack=0;resizeParent=1;resizeParentMax=0;resizeLast=0;collapsible=0;marginBottom=0;swimlaneFillColor=#ffffff;labelBackgroundColor=none;labelBorderColor=none;" parent="0Al4i7XwTMoi_BySgxpM-38" vertex="1">
          <mxGeometry x="817" y="202" width="100" height="70" as="geometry" />
        </mxCell>
        <mxCell id="wd8GQg8yWR7TYl4xGY3D-68" value="Edit Subject" style="text;html=1;strokeColor=none;fillColor=none;align=center;verticalAlign=middle;whiteSpace=wrap;rounded=0;labelBackgroundColor=none;" parent="wd8GQg8yWR7TYl4xGY3D-67" vertex="1">
          <mxGeometry y="20" width="100" height="50" as="geometry" />
        </mxCell>
        <mxCell id="wd8GQg8yWR7TYl4xGY3D-70" style="edgeStyle=orthogonalEdgeStyle;rounded=0;orthogonalLoop=1;jettySize=auto;html=1;entryX=0;entryY=0;entryDx=0;entryDy=0;startArrow=classic;startFill=1;endArrow=none;endFill=0;exitX=0.5;exitY=1;exitDx=0;exitDy=0;" parent="0Al4i7XwTMoi_BySgxpM-38" target="wd8GQg8yWR7TYl4xGY3D-57" edge="1">
          <mxGeometry x="-210" y="1" as="geometry">
            <Array as="points">
              <mxPoint x="700" y="123" />
            </Array>
            <mxPoint x="700" y="71" as="sourcePoint" />
          </mxGeometry>
        </mxCell>
        <mxCell id="wd8GQg8yWR7TYl4xGY3D-71" style="edgeStyle=orthogonalEdgeStyle;rounded=0;orthogonalLoop=1;jettySize=auto;html=1;entryX=1;entryY=0.75;entryDx=0;entryDy=0;startArrow=classic;startFill=1;endArrow=none;endFill=0;" parent="0Al4i7XwTMoi_BySgxpM-38" edge="1">
          <mxGeometry x="-180" y="1" as="geometry">
            <mxPoint x="650" y="46" as="sourcePoint" />
            <mxPoint x="590.0000000000005" y="46" as="targetPoint" />
          </mxGeometry>
        </mxCell>
        <mxCell id="wd8GQg8yWR7TYl4xGY3D-75" style="edgeStyle=orthogonalEdgeStyle;rounded=0;orthogonalLoop=1;jettySize=auto;html=1;startArrow=none;startFill=0;endArrow=classic;endFill=1;entryX=1;entryY=0.575;entryDx=0;entryDy=0;entryPerimeter=0;" parent="0Al4i7XwTMoi_BySgxpM-38" source="wd8GQg8yWR7TYl4xGY3D-68" target="wd8GQg8yWR7TYl4xGY3D-17" edge="1">
          <mxGeometry x="-180" y="-23" as="geometry">
            <mxPoint x="600" y="247" as="targetPoint" />
          </mxGeometry>
        </mxCell>
        <mxCell id="wd8GQg8yWR7TYl4xGY3D-76" style="edgeStyle=orthogonalEdgeStyle;rounded=0;orthogonalLoop=1;jettySize=auto;html=1;exitX=1;exitY=0.25;exitDx=0;exitDy=0;entryX=0;entryY=0.25;entryDx=0;entryDy=0;startArrow=none;startFill=0;endArrow=classic;endFill=1;" parent="0Al4i7XwTMoi_BySgxpM-38" source="wd8GQg8yWR7TYl4xGY3D-17" target="wd8GQg8yWR7TYl4xGY3D-68" edge="1">
          <mxGeometry x="-180" y="-23" as="geometry" />
        </mxCell>
        <mxCell id="wd8GQg8yWR7TYl4xGY3D-78" value="9.0" style="swimlane;fontStyle=0;childLayout=stackLayout;horizontal=1;startSize=20;fillColor=#ffffff;horizontalStack=0;resizeParent=1;resizeParentMax=0;resizeLast=0;collapsible=0;marginBottom=0;swimlaneFillColor=#ffffff;labelBackgroundColor=none;labelBorderColor=none;" parent="0Al4i7XwTMoi_BySgxpM-38" vertex="1">
          <mxGeometry x="797" y="310" width="100" height="70" as="geometry" />
        </mxCell>
        <mxCell id="wd8GQg8yWR7TYl4xGY3D-79" value="Create Quiz" style="text;html=1;strokeColor=none;fillColor=none;align=center;verticalAlign=middle;whiteSpace=wrap;rounded=0;labelBackgroundColor=none;" parent="wd8GQg8yWR7TYl4xGY3D-78" vertex="1">
          <mxGeometry y="20" width="100" height="50" as="geometry" />
        </mxCell>
        <mxCell id="wd8GQg8yWR7TYl4xGY3D-80" value="10.0" style="swimlane;fontStyle=0;childLayout=stackLayout;horizontal=1;startSize=20;fillColor=#ffffff;horizontalStack=0;resizeParent=1;resizeParentMax=0;resizeLast=0;collapsible=0;marginBottom=0;swimlaneFillColor=#ffffff;labelBackgroundColor=none;labelBorderColor=none;" parent="0Al4i7XwTMoi_BySgxpM-38" vertex="1">
          <mxGeometry x="919" y="310" width="100" height="70" as="geometry" />
        </mxCell>
        <mxCell id="wd8GQg8yWR7TYl4xGY3D-81" value="Create Assignment" style="text;html=1;strokeColor=none;fillColor=none;align=center;verticalAlign=middle;whiteSpace=wrap;rounded=0;labelBackgroundColor=none;" parent="wd8GQg8yWR7TYl4xGY3D-80" vertex="1">
          <mxGeometry y="20" width="100" height="50" as="geometry" />
        </mxCell>
        <mxCell id="wd8GQg8yWR7TYl4xGY3D-82" value="" style="group" parent="0Al4i7XwTMoi_BySgxpM-38" vertex="1" connectable="0">
          <mxGeometry x="779" y="418" width="140" height="40" as="geometry" />
        </mxCell>
        <mxCell id="wd8GQg8yWR7TYl4xGY3D-83" value="D5" style="html=1;dashed=0;whitespace=wrap;shape=mxgraph.dfd.dataStoreID;align=left;spacingLeft=3;points=[[0,0],[0.5,0],[1,0],[0,0.5],[1,0.5],[0,1],[0.5,1],[1,1]];labelBackgroundColor=none;" parent="wd8GQg8yWR7TYl4xGY3D-82" vertex="1">
          <mxGeometry width="140" height="40" as="geometry" />
        </mxCell>
        <mxCell id="wd8GQg8yWR7TYl4xGY3D-84" value="Quiz" style="text;html=1;strokeColor=none;fillColor=none;align=center;verticalAlign=middle;whiteSpace=wrap;rounded=0;labelBackgroundColor=none;" parent="wd8GQg8yWR7TYl4xGY3D-82" vertex="1">
          <mxGeometry x="21.333333333333332" width="116.66666666666667" height="40" as="geometry" />
        </mxCell>
        <mxCell id="wd8GQg8yWR7TYl4xGY3D-85" value="" style="group" parent="0Al4i7XwTMoi_BySgxpM-38" vertex="1" connectable="0">
          <mxGeometry x="779" y="506" width="140" height="40" as="geometry" />
        </mxCell>
        <mxCell id="wd8GQg8yWR7TYl4xGY3D-86" value="D6" style="html=1;dashed=0;whitespace=wrap;shape=mxgraph.dfd.dataStoreID;align=left;spacingLeft=3;points=[[0,0],[0.5,0],[1,0],[0,0.5],[1,0.5],[0,1],[0.5,1],[1,1]];labelBackgroundColor=none;" parent="wd8GQg8yWR7TYl4xGY3D-85" vertex="1">
          <mxGeometry width="140" height="40" as="geometry" />
        </mxCell>
        <mxCell id="wd8GQg8yWR7TYl4xGY3D-87" value="Assignment" style="text;html=1;strokeColor=none;fillColor=none;align=center;verticalAlign=middle;whiteSpace=wrap;rounded=0;labelBackgroundColor=none;" parent="wd8GQg8yWR7TYl4xGY3D-85" vertex="1">
          <mxGeometry x="21.333333333333332" width="116.66666666666667" height="40" as="geometry" />
        </mxCell>
        <mxCell id="wd8GQg8yWR7TYl4xGY3D-94" style="edgeStyle=orthogonalEdgeStyle;rounded=0;orthogonalLoop=1;jettySize=auto;html=1;exitX=0.5;exitY=0;exitDx=0;exitDy=0;entryX=0.5;entryY=1;entryDx=0;entryDy=0;startArrow=none;startFill=0;endArrow=classic;endFill=1;" parent="0Al4i7XwTMoi_BySgxpM-38" source="wd8GQg8yWR7TYl4xGY3D-88" target="wd8GQg8yWR7TYl4xGY3D-33" edge="1">
          <mxGeometry x="-180" y="-23" as="geometry" />
        </mxCell>
        <mxCell id="wd8GQg8yWR7TYl4xGY3D-88" value="12.0" style="swimlane;fontStyle=0;childLayout=stackLayout;horizontal=1;startSize=20;fillColor=#ffffff;horizontalStack=0;resizeParent=1;resizeParentMax=0;resizeLast=0;collapsible=0;marginBottom=0;swimlaneFillColor=#ffffff;labelBackgroundColor=none;labelBorderColor=none;" parent="0Al4i7XwTMoi_BySgxpM-38" vertex="1">
          <mxGeometry x="472" y="398" width="120" height="70" as="geometry" />
        </mxCell>
        <mxCell id="wd8GQg8yWR7TYl4xGY3D-89" value="Login" style="text;html=1;strokeColor=none;fillColor=none;align=center;verticalAlign=middle;whiteSpace=wrap;rounded=0;labelBackgroundColor=none;" parent="wd8GQg8yWR7TYl4xGY3D-88" vertex="1">
          <mxGeometry y="20" width="120" height="50" as="geometry" />
        </mxCell>
        <mxCell id="0Al4i7XwTMoi_BySgxpM-33" style="edgeStyle=orthogonalEdgeStyle;rounded=0;orthogonalLoop=1;jettySize=auto;html=1;exitX=0.5;exitY=0;exitDx=0;exitDy=0;entryX=0.5;entryY=1;entryDx=0;entryDy=0;startArrow=none;startFill=0;endArrow=classic;endFill=1;" edge="1" parent="0Al4i7XwTMoi_BySgxpM-38" source="wd8GQg8yWR7TYl4xGY3D-95" target="wd8GQg8yWR7TYl4xGY3D-17">
          <mxGeometry relative="1" as="geometry">
            <Array as="points">
              <mxPoint x="690" y="277" />
              <mxPoint x="532" y="277" />
            </Array>
          </mxGeometry>
        </mxCell>
        <mxCell id="wd8GQg8yWR7TYl4xGY3D-95" value="13.0" style="swimlane;fontStyle=0;childLayout=stackLayout;horizontal=1;startSize=20;fillColor=#ffffff;horizontalStack=0;resizeParent=1;resizeParentMax=0;resizeLast=0;collapsible=0;marginBottom=0;swimlaneFillColor=#ffffff;labelBackgroundColor=none;labelBorderColor=none;" parent="0Al4i7XwTMoi_BySgxpM-38" vertex="1">
          <mxGeometry x="640" y="312" width="100" height="70" as="geometry" />
        </mxCell>
        <mxCell id="wd8GQg8yWR7TYl4xGY3D-96" value="View Subject" style="text;html=1;strokeColor=none;fillColor=none;align=center;verticalAlign=middle;whiteSpace=wrap;rounded=0;labelBackgroundColor=none;" parent="wd8GQg8yWR7TYl4xGY3D-95" vertex="1">
          <mxGeometry y="20" width="100" height="50" as="geometry" />
        </mxCell>
        <mxCell id="wd8GQg8yWR7TYl4xGY3D-97" value="14.0" style="swimlane;fontStyle=0;childLayout=stackLayout;horizontal=1;startSize=20;fillColor=#ffffff;horizontalStack=0;resizeParent=1;resizeParentMax=0;resizeLast=0;collapsible=0;marginBottom=0;swimlaneFillColor=#ffffff;labelBackgroundColor=none;labelBorderColor=none;" parent="0Al4i7XwTMoi_BySgxpM-38" vertex="1">
          <mxGeometry x="640" y="398" width="100" height="70" as="geometry" />
        </mxCell>
        <mxCell id="wd8GQg8yWR7TYl4xGY3D-98" value="Submit Quiz" style="text;html=1;strokeColor=none;fillColor=none;align=center;verticalAlign=middle;whiteSpace=wrap;rounded=0;labelBackgroundColor=none;" parent="wd8GQg8yWR7TYl4xGY3D-97" vertex="1">
          <mxGeometry y="20" width="100" height="50" as="geometry" />
        </mxCell>
        <mxCell id="wd8GQg8yWR7TYl4xGY3D-100" value="15.0" style="swimlane;fontStyle=0;childLayout=stackLayout;horizontal=1;startSize=20;fillColor=#ffffff;horizontalStack=0;resizeParent=1;resizeParentMax=0;resizeLast=0;collapsible=0;marginBottom=0;swimlaneFillColor=#ffffff;labelBackgroundColor=none;labelBorderColor=none;" parent="0Al4i7XwTMoi_BySgxpM-38" vertex="1">
          <mxGeometry x="640" y="486" width="100" height="70" as="geometry" />
        </mxCell>
        <mxCell id="wd8GQg8yWR7TYl4xGY3D-101" value="Submit Assignment" style="text;html=1;strokeColor=none;fillColor=none;align=center;verticalAlign=middle;whiteSpace=wrap;rounded=0;labelBackgroundColor=none;" parent="wd8GQg8yWR7TYl4xGY3D-100" vertex="1">
          <mxGeometry y="20" width="100" height="50" as="geometry" />
        </mxCell>
        <mxCell id="wd8GQg8yWR7TYl4xGY3D-103" value="11.0" style="swimlane;fontStyle=0;childLayout=stackLayout;horizontal=1;startSize=20;fillColor=#ffffff;horizontalStack=0;resizeParent=1;resizeParentMax=0;resizeLast=0;collapsible=0;marginBottom=0;swimlaneFillColor=#ffffff;labelBackgroundColor=none;labelBorderColor=none;html=1;" parent="0Al4i7XwTMoi_BySgxpM-38" vertex="1">
          <mxGeometry x="770" y="578" width="100" height="70" as="geometry" />
        </mxCell>
        <mxCell id="wd8GQg8yWR7TYl4xGY3D-104" value="Create/View Forum" style="text;html=1;strokeColor=none;fillColor=none;align=center;verticalAlign=middle;whiteSpace=wrap;rounded=0;labelBackgroundColor=none;" parent="wd8GQg8yWR7TYl4xGY3D-103" vertex="1">
          <mxGeometry y="20" width="100" height="50" as="geometry" />
        </mxCell>
        <mxCell id="wd8GQg8yWR7TYl4xGY3D-105" value="" style="group" parent="0Al4i7XwTMoi_BySgxpM-38" vertex="1" connectable="0">
          <mxGeometry x="750" y="677" width="140" height="40" as="geometry" />
        </mxCell>
        <mxCell id="wd8GQg8yWR7TYl4xGY3D-106" value="D7" style="html=1;dashed=0;whitespace=wrap;shape=mxgraph.dfd.dataStoreID;align=left;spacingLeft=3;points=[[0,0],[0.5,0],[1,0],[0,0.5],[1,0.5],[0,1],[0.5,1],[1,1]];labelBackgroundColor=none;" parent="wd8GQg8yWR7TYl4xGY3D-105" vertex="1">
          <mxGeometry width="140" height="40" as="geometry" />
        </mxCell>
        <mxCell id="wd8GQg8yWR7TYl4xGY3D-107" value="Forum" style="text;html=1;strokeColor=none;fillColor=none;align=center;verticalAlign=middle;whiteSpace=wrap;rounded=0;labelBackgroundColor=none;" parent="wd8GQg8yWR7TYl4xGY3D-105" vertex="1">
          <mxGeometry x="21.333333333333332" width="116.66666666666667" height="40" as="geometry" />
        </mxCell>
        <mxCell id="wd8GQg8yWR7TYl4xGY3D-111" style="edgeStyle=orthogonalEdgeStyle;rounded=0;orthogonalLoop=1;jettySize=auto;html=1;entryX=0;entryY=0.25;entryDx=0;entryDy=0;startArrow=none;startFill=0;endArrow=classic;endFill=1;" parent="0Al4i7XwTMoi_BySgxpM-38" source="wd8GQg8yWR7TYl4xGY3D-89" target="wd8GQg8yWR7TYl4xGY3D-96" edge="1">
          <mxGeometry x="-180" y="-23" as="geometry">
            <Array as="points">
              <mxPoint x="610" y="443" />
              <mxPoint x="610" y="344" />
            </Array>
          </mxGeometry>
        </mxCell>
        <mxCell id="wd8GQg8yWR7TYl4xGY3D-114" style="edgeStyle=orthogonalEdgeStyle;rounded=0;orthogonalLoop=1;jettySize=auto;html=1;entryX=0;entryY=0.5;entryDx=0;entryDy=0;startArrow=none;startFill=0;endArrow=classic;endFill=1;" parent="0Al4i7XwTMoi_BySgxpM-38" source="wd8GQg8yWR7TYl4xGY3D-89" target="wd8GQg8yWR7TYl4xGY3D-98" edge="1">
          <mxGeometry x="-180" y="-47" as="geometry" />
        </mxCell>
        <mxCell id="wd8GQg8yWR7TYl4xGY3D-115" style="edgeStyle=orthogonalEdgeStyle;rounded=0;orthogonalLoop=1;jettySize=auto;html=1;entryX=0;entryY=0.5;entryDx=0;entryDy=0;startArrow=none;startFill=0;endArrow=classic;endFill=1;" parent="0Al4i7XwTMoi_BySgxpM-38" source="wd8GQg8yWR7TYl4xGY3D-89" target="wd8GQg8yWR7TYl4xGY3D-101" edge="1">
          <mxGeometry x="-180" y="-47" as="geometry">
            <Array as="points">
              <mxPoint x="610" y="443" />
              <mxPoint x="610" y="531" />
            </Array>
          </mxGeometry>
        </mxCell>
        <mxCell id="wd8GQg8yWR7TYl4xGY3D-117" style="edgeStyle=orthogonalEdgeStyle;rounded=0;orthogonalLoop=1;jettySize=auto;html=1;exitX=1;exitY=0.25;exitDx=0;exitDy=0;entryX=-0.021;entryY=0.315;entryDx=0;entryDy=0;entryPerimeter=0;startArrow=none;startFill=0;endArrow=classic;endFill=1;" parent="0Al4i7XwTMoi_BySgxpM-38" source="wd8GQg8yWR7TYl4xGY3D-98" target="wd8GQg8yWR7TYl4xGY3D-83" edge="1">
          <mxGeometry x="-210" y="-47" as="geometry" />
        </mxCell>
        <mxCell id="wd8GQg8yWR7TYl4xGY3D-118" style="edgeStyle=orthogonalEdgeStyle;rounded=0;orthogonalLoop=1;jettySize=auto;html=1;exitX=0;exitY=0.5;exitDx=0;exitDy=0;startArrow=none;startFill=0;endArrow=classic;endFill=1;" parent="0Al4i7XwTMoi_BySgxpM-38" source="wd8GQg8yWR7TYl4xGY3D-83" edge="1">
          <mxGeometry x="-210" y="-47" as="geometry">
            <mxPoint x="740" y="438" as="targetPoint" />
          </mxGeometry>
        </mxCell>
        <mxCell id="wd8GQg8yWR7TYl4xGY3D-119" style="edgeStyle=orthogonalEdgeStyle;rounded=0;orthogonalLoop=1;jettySize=auto;html=1;exitX=1;exitY=0.25;exitDx=0;exitDy=0;entryX=0;entryY=0.325;entryDx=0;entryDy=0;entryPerimeter=0;startArrow=none;startFill=0;endArrow=classic;endFill=1;" parent="0Al4i7XwTMoi_BySgxpM-38" source="wd8GQg8yWR7TYl4xGY3D-101" target="wd8GQg8yWR7TYl4xGY3D-86" edge="1">
          <mxGeometry x="-210" y="-69" as="geometry" />
        </mxCell>
        <mxCell id="wd8GQg8yWR7TYl4xGY3D-120" style="edgeStyle=orthogonalEdgeStyle;rounded=0;orthogonalLoop=1;jettySize=auto;html=1;exitX=0;exitY=0.625;exitDx=0;exitDy=0;entryX=1;entryY=0.5;entryDx=0;entryDy=0;startArrow=none;startFill=0;endArrow=classic;endFill=1;exitPerimeter=0;" parent="0Al4i7XwTMoi_BySgxpM-38" source="wd8GQg8yWR7TYl4xGY3D-86" target="wd8GQg8yWR7TYl4xGY3D-101" edge="1">
          <mxGeometry x="-210" y="-69" as="geometry" />
        </mxCell>
        <mxCell id="wd8GQg8yWR7TYl4xGY3D-133" style="edgeStyle=orthogonalEdgeStyle;rounded=0;orthogonalLoop=1;jettySize=auto;html=1;entryX=0;entryY=0.5;entryDx=0;entryDy=0;startArrow=none;startFill=0;endArrow=classic;endFill=1;" parent="0Al4i7XwTMoi_BySgxpM-38" source="wd8GQg8yWR7TYl4xGY3D-3" target="wd8GQg8yWR7TYl4xGY3D-89" edge="1">
          <mxGeometry x="-180" y="-47" as="geometry" />
        </mxCell>
        <mxCell id="0Al4i7XwTMoi_BySgxpM-1" style="edgeStyle=orthogonalEdgeStyle;rounded=0;orthogonalLoop=1;jettySize=auto;html=1;startArrow=none;startFill=0;endArrow=classic;endFill=1;entryX=0;entryY=0.25;entryDx=0;entryDy=0;" edge="1" parent="0Al4i7XwTMoi_BySgxpM-38" source="wd8GQg8yWR7TYl4xGY3D-89" target="wd8GQg8yWR7TYl4xGY3D-104">
          <mxGeometry relative="1" as="geometry">
            <mxPoint x="770" y="637" as="targetPoint" />
            <Array as="points">
              <mxPoint x="610" y="443" />
              <mxPoint x="610" y="611" />
              <mxPoint x="750" y="611" />
            </Array>
          </mxGeometry>
        </mxCell>
        <mxCell id="0Al4i7XwTMoi_BySgxpM-5" style="edgeStyle=orthogonalEdgeStyle;rounded=0;orthogonalLoop=1;jettySize=auto;html=1;startArrow=none;startFill=0;endArrow=classic;endFill=1;" edge="1" parent="0Al4i7XwTMoi_BySgxpM-38">
          <mxGeometry relative="1" as="geometry">
            <mxPoint x="390" y="36" as="targetPoint" />
            <mxPoint x="450" y="36.039999999999964" as="sourcePoint" />
            <Array as="points">
              <mxPoint x="440" y="36" />
              <mxPoint x="440" y="36" />
            </Array>
          </mxGeometry>
        </mxCell>
        <mxCell id="0Al4i7XwTMoi_BySgxpM-8" style="edgeStyle=orthogonalEdgeStyle;rounded=0;orthogonalLoop=1;jettySize=auto;html=1;exitX=0;exitY=0.5;exitDx=0;exitDy=0;entryX=1;entryY=0.25;entryDx=0;entryDy=0;startArrow=none;startFill=0;endArrow=classic;endFill=1;" edge="1" parent="0Al4i7XwTMoi_BySgxpM-38" source="wd8GQg8yWR7TYl4xGY3D-11" target="wd8GQg8yWR7TYl4xGY3D-7">
          <mxGeometry relative="1" as="geometry" />
        </mxCell>
        <mxCell id="0Al4i7XwTMoi_BySgxpM-9" style="edgeStyle=orthogonalEdgeStyle;rounded=0;orthogonalLoop=1;jettySize=auto;html=1;exitX=1;exitY=0.5;exitDx=0;exitDy=0;entryX=-0.029;entryY=0.834;entryDx=0;entryDy=0;entryPerimeter=0;startArrow=none;startFill=0;endArrow=classic;endFill=1;" edge="1" parent="0Al4i7XwTMoi_BySgxpM-38" source="wd8GQg8yWR7TYl4xGY3D-7" target="wd8GQg8yWR7TYl4xGY3D-11">
          <mxGeometry relative="1" as="geometry" />
        </mxCell>
        <mxCell id="0Al4i7XwTMoi_BySgxpM-10" style="edgeStyle=orthogonalEdgeStyle;rounded=0;orthogonalLoop=1;jettySize=auto;html=1;exitX=0;exitY=0.5;exitDx=0;exitDy=0;entryX=1;entryY=0.5;entryDx=0;entryDy=0;startArrow=none;startFill=0;endArrow=classic;endFill=1;" edge="1" parent="0Al4i7XwTMoi_BySgxpM-38" source="wd8GQg8yWR7TYl4xGY3D-16" target="wd8GQg8yWR7TYl4xGY3D-10">
          <mxGeometry relative="1" as="geometry">
            <Array as="points">
              <mxPoint x="450" y="247" />
            </Array>
          </mxGeometry>
        </mxCell>
        <mxCell id="0Al4i7XwTMoi_BySgxpM-11" style="edgeStyle=orthogonalEdgeStyle;rounded=0;orthogonalLoop=1;jettySize=auto;html=1;exitX=1;exitY=0.25;exitDx=0;exitDy=0;entryX=0;entryY=0.265;entryDx=0;entryDy=0;entryPerimeter=0;startArrow=none;startFill=0;endArrow=classic;endFill=1;" edge="1" parent="0Al4i7XwTMoi_BySgxpM-38" source="wd8GQg8yWR7TYl4xGY3D-10" target="wd8GQg8yWR7TYl4xGY3D-16">
          <mxGeometry relative="1" as="geometry" />
        </mxCell>
        <mxCell id="0Al4i7XwTMoi_BySgxpM-12" style="edgeStyle=orthogonalEdgeStyle;rounded=0;orthogonalLoop=1;jettySize=auto;html=1;exitX=1;exitY=0.5;exitDx=0;exitDy=0;entryX=-0.014;entryY=0.802;entryDx=0;entryDy=0;entryPerimeter=0;startArrow=none;startFill=0;endArrow=classic;endFill=1;" edge="1" parent="0Al4i7XwTMoi_BySgxpM-38" source="wd8GQg8yWR7TYl4xGY3D-29" target="wd8GQg8yWR7TYl4xGY3D-32">
          <mxGeometry relative="1" as="geometry" />
        </mxCell>
        <mxCell id="0Al4i7XwTMoi_BySgxpM-13" style="edgeStyle=orthogonalEdgeStyle;rounded=0;orthogonalLoop=1;jettySize=auto;html=1;exitX=0;exitY=0.5;exitDx=0;exitDy=0;entryX=1;entryY=0.25;entryDx=0;entryDy=0;startArrow=none;startFill=0;endArrow=classic;endFill=1;" edge="1" parent="0Al4i7XwTMoi_BySgxpM-38" source="wd8GQg8yWR7TYl4xGY3D-32" target="wd8GQg8yWR7TYl4xGY3D-29">
          <mxGeometry relative="1" as="geometry">
            <Array as="points">
              <mxPoint x="420" y="345" />
            </Array>
          </mxGeometry>
        </mxCell>
        <mxCell id="0Al4i7XwTMoi_BySgxpM-14" style="edgeStyle=orthogonalEdgeStyle;rounded=0;orthogonalLoop=1;jettySize=auto;html=1;exitX=0.25;exitY=1;exitDx=0;exitDy=0;startArrow=none;startFill=0;endArrow=classic;endFill=1;" edge="1" parent="0Al4i7XwTMoi_BySgxpM-38" source="wd8GQg8yWR7TYl4xGY3D-33">
          <mxGeometry relative="1" as="geometry">
            <mxPoint x="502.5999999999999" y="397" as="targetPoint" />
          </mxGeometry>
        </mxCell>
        <mxCell id="0Al4i7XwTMoi_BySgxpM-16" style="edgeStyle=orthogonalEdgeStyle;rounded=0;orthogonalLoop=1;jettySize=auto;html=1;exitX=1;exitY=0.5;exitDx=0;exitDy=0;entryX=0.5;entryY=0;entryDx=0;entryDy=0;startArrow=none;startFill=0;endArrow=classic;endFill=1;" edge="1" parent="0Al4i7XwTMoi_BySgxpM-38" source="wd8GQg8yWR7TYl4xGY3D-68" target="wd8GQg8yWR7TYl4xGY3D-80">
          <mxGeometry relative="1" as="geometry" />
        </mxCell>
        <mxCell id="0Al4i7XwTMoi_BySgxpM-17" style="edgeStyle=orthogonalEdgeStyle;rounded=0;orthogonalLoop=1;jettySize=auto;html=1;exitX=1;exitY=0.5;exitDx=0;exitDy=0;startArrow=none;startFill=0;endArrow=classic;endFill=1;" edge="1" parent="0Al4i7XwTMoi_BySgxpM-38" source="wd8GQg8yWR7TYl4xGY3D-57">
          <mxGeometry relative="1" as="geometry">
            <mxPoint x="870" y="617" as="targetPoint" />
            <Array as="points">
              <mxPoint x="917" y="124" />
              <mxPoint x="1030" y="124" />
              <mxPoint x="1030" y="617" />
              <mxPoint x="870" y="617" />
            </Array>
          </mxGeometry>
        </mxCell>
        <mxCell id="0Al4i7XwTMoi_BySgxpM-18" style="edgeStyle=orthogonalEdgeStyle;rounded=0;orthogonalLoop=1;jettySize=auto;html=1;exitX=0.5;exitY=1;exitDx=0;exitDy=0;entryX=1;entryY=0.5;entryDx=0;entryDy=0;startArrow=none;startFill=0;endArrow=classic;endFill=1;" edge="1" parent="0Al4i7XwTMoi_BySgxpM-38" source="wd8GQg8yWR7TYl4xGY3D-81" target="wd8GQg8yWR7TYl4xGY3D-87">
          <mxGeometry relative="1" as="geometry" />
        </mxCell>
        <mxCell id="0Al4i7XwTMoi_BySgxpM-19" style="edgeStyle=orthogonalEdgeStyle;rounded=0;orthogonalLoop=1;jettySize=auto;html=1;exitX=1;exitY=0.25;exitDx=0;exitDy=0;entryX=0.4;entryY=0.98;entryDx=0;entryDy=0;entryPerimeter=0;startArrow=none;startFill=0;endArrow=classic;endFill=1;" edge="1" parent="0Al4i7XwTMoi_BySgxpM-38" source="wd8GQg8yWR7TYl4xGY3D-87" target="wd8GQg8yWR7TYl4xGY3D-81">
          <mxGeometry relative="1" as="geometry" />
        </mxCell>
        <mxCell id="0Al4i7XwTMoi_BySgxpM-25" style="edgeStyle=orthogonalEdgeStyle;rounded=0;orthogonalLoop=1;jettySize=auto;html=1;exitX=0.5;exitY=1;exitDx=0;exitDy=0;entryX=0.399;entryY=0.001;entryDx=0;entryDy=0;entryPerimeter=0;startArrow=none;startFill=0;endArrow=classic;endFill=1;" edge="1" parent="0Al4i7XwTMoi_BySgxpM-38" source="wd8GQg8yWR7TYl4xGY3D-57" target="wd8GQg8yWR7TYl4xGY3D-67">
          <mxGeometry relative="1" as="geometry" />
        </mxCell>
        <mxCell id="0Al4i7XwTMoi_BySgxpM-26" style="edgeStyle=orthogonalEdgeStyle;rounded=0;orthogonalLoop=1;jettySize=auto;html=1;exitX=0.5;exitY=1;exitDx=0;exitDy=0;startArrow=none;startFill=0;endArrow=classic;endFill=1;" edge="1" parent="0Al4i7XwTMoi_BySgxpM-38" source="wd8GQg8yWR7TYl4xGY3D-104">
          <mxGeometry relative="1" as="geometry">
            <mxPoint x="820.2" y="677" as="targetPoint" />
          </mxGeometry>
        </mxCell>
        <mxCell id="0Al4i7XwTMoi_BySgxpM-28" style="edgeStyle=orthogonalEdgeStyle;rounded=0;orthogonalLoop=1;jettySize=auto;html=1;exitX=0.5;exitY=0;exitDx=0;exitDy=0;entryX=0.606;entryY=1.041;entryDx=0;entryDy=0;entryPerimeter=0;startArrow=none;startFill=0;endArrow=classic;endFill=1;" edge="1" parent="0Al4i7XwTMoi_BySgxpM-38" source="wd8GQg8yWR7TYl4xGY3D-107" target="wd8GQg8yWR7TYl4xGY3D-104">
          <mxGeometry relative="1" as="geometry" />
        </mxCell>
        <mxCell id="0Al4i7XwTMoi_BySgxpM-29" style="edgeStyle=orthogonalEdgeStyle;rounded=0;orthogonalLoop=1;jettySize=auto;html=1;exitX=1;exitY=0.5;exitDx=0;exitDy=0;entryX=0;entryY=0.87;entryDx=0;entryDy=0;entryPerimeter=0;startArrow=none;startFill=0;endArrow=classic;endFill=1;" edge="1" parent="0Al4i7XwTMoi_BySgxpM-38" source="wd8GQg8yWR7TYl4xGY3D-5" target="wd8GQg8yWR7TYl4xGY3D-26">
          <mxGeometry relative="1" as="geometry" />
        </mxCell>
        <mxCell id="0Al4i7XwTMoi_BySgxpM-32" style="edgeStyle=orthogonalEdgeStyle;rounded=0;orthogonalLoop=1;jettySize=auto;html=1;exitX=0.25;exitY=1;exitDx=0;exitDy=0;entryX=0.25;entryY=0;entryDx=0;entryDy=0;startArrow=none;startFill=0;endArrow=classic;endFill=1;" edge="1" parent="0Al4i7XwTMoi_BySgxpM-38" source="wd8GQg8yWR7TYl4xGY3D-17" target="wd8GQg8yWR7TYl4xGY3D-95">
          <mxGeometry relative="1" as="geometry" />
        </mxCell>
        <mxCell id="0Al4i7XwTMoi_BySgxpM-35" style="edgeStyle=orthogonalEdgeStyle;rounded=0;orthogonalLoop=1;jettySize=auto;html=1;exitX=0.25;exitY=1;exitDx=0;exitDy=0;entryX=0.198;entryY=0.006;entryDx=0;entryDy=0;entryPerimeter=0;startArrow=none;startFill=0;endArrow=classic;endFill=1;" edge="1" parent="0Al4i7XwTMoi_BySgxpM-38" source="wd8GQg8yWR7TYl4xGY3D-79" target="wd8GQg8yWR7TYl4xGY3D-84">
          <mxGeometry relative="1" as="geometry" />
        </mxCell>
        <mxCell id="0Al4i7XwTMoi_BySgxpM-36" style="edgeStyle=orthogonalEdgeStyle;rounded=0;orthogonalLoop=1;jettySize=auto;html=1;exitX=0.25;exitY=0;exitDx=0;exitDy=0;entryX=0.35;entryY=0.997;entryDx=0;entryDy=0;entryPerimeter=0;startArrow=none;startFill=0;endArrow=classic;endFill=1;" edge="1" parent="0Al4i7XwTMoi_BySgxpM-38" source="wd8GQg8yWR7TYl4xGY3D-84" target="wd8GQg8yWR7TYl4xGY3D-79">
          <mxGeometry relative="1" as="geometry" />
        </mxCell>
        <mxCell id="0Al4i7XwTMoi_BySgxpM-37" style="edgeStyle=orthogonalEdgeStyle;rounded=0;orthogonalLoop=1;jettySize=auto;html=1;exitX=0.25;exitY=1;exitDx=0;exitDy=0;entryX=0.421;entryY=0.012;entryDx=0;entryDy=0;entryPerimeter=0;startArrow=none;startFill=0;endArrow=classic;endFill=1;" edge="1" parent="0Al4i7XwTMoi_BySgxpM-38" source="wd8GQg8yWR7TYl4xGY3D-68" target="wd8GQg8yWR7TYl4xGY3D-78">
          <mxGeometry relative="1" as="geometry" />
        </mxCell>
      </root>
    </mxGraphModel>
  </diagram>
</mxfile>
